<?xml version="1.0" encoding="UTF-8"?>
<svg xmlns="http://www.w3.org/2000/svg" width="512" height="512" viewBox="0 0 512 512"><g><path d="M256,40a80,80,0,1,0,80,80A80.093,80.093,0,0,0,256,40Zm0,144a64,64,0,1,1,64-64A64.072,64.072,0,0,1,256,184Z"/><path d="M256,8A112,112,0,1,0,368,120,112.123,112.123,0,0,0,256,8Zm0,208a96,96,0,1,1,96-96A96.115,96.115,0,0,1,256,216Z"/><path d="M280,120v24a8,8,0,0,1-8,8h-8a8,8,0,0,1-16,0h-8a8,8,0,0,1,0-16h24v-8H240a8,8,0,0,1-8-8V96a8,8,0,0,1,8-8h8a8,8,0,0,1,16,0h8a8,8,0,0,1,0,16H248v8h24A8,8,0,0,1,280,120Z"/><path d="M383.16,332.42A8.011,8.011,0,0,0,376,328H336V248a8,8,0,0,0-8-8H184a8,8,0,0,0-8,8v80H136a8,8,0,0,0-6.4,12.8l120,160a8,8,0,0,0,12.8,0l120-160A8.011,8.011,0,0,0,383.16,332.42ZM256,482.67,152,344h32a8,8,0,0,0,8-8V256H320v80a8,8,0,0,0,8,8h32Z"/><path d="M143.187,268.485A8,8,0,0,0,136,264H120V160a8,8,0,0,0-8-8H48a8,8,0,0,0-8,8V264H24a8,8,0,0,0-6.315,12.911l56,72a8,8,0,0,0,12.63,0l56-72A8,8,0,0,0,143.187,268.485ZM80,330.97,40.357,280H48a8,8,0,0,0,8-8V168h48V272a8,8,0,0,0,8,8h7.643Z"/><path d="M48,144h64a8,8,0,0,0,8-8V112a8,8,0,0,0-8-8H48a8,8,0,0,0-8,8v24A8,8,0,0,0,48,144Zm8-24h48v8H56Z"/><path d="M495.187,204.485A8,8,0,0,0,488,200H472V96a8,8,0,0,0-8-8H400a8,8,0,0,0-8,8V200H376a8,8,0,0,0-6.315,12.911l56,72a8,8,0,0,0,12.63,0l56-72A8,8,0,0,0,495.187,204.485ZM432,266.97,392.357,216H400a8,8,0,0,0,8-8V104h48V208a8,8,0,0,0,8,8h7.643Z"/><path d="M400,80h64a8,8,0,0,0,8-8V48a8,8,0,0,0-8-8H400a8,8,0,0,0-8,8V72A8,8,0,0,0,400,80Zm8-24h48v8H408Z"/></g></svg>
